<svg width="95" height="63" fill="none" xmlns="http://www.w3.org/2000/svg"><path d="M21.983 15.706h-4.465V4.605h58.035v11.101h-4.464v-5.639H21.983v5.64z" fill="url(#paint0_linear_24_22)"/><path d="M17.518 47.118h4.465v5.61h49.106v-5.61h4.464v11.043H17.519V47.118z" fill="url(#paint1_linear_24_22)"/><path d="M3.768 21.34l4.485 7.151 4.486-7.15h2.883l-5.895 9.24L15.764 40h-2.91l-4.6-7.292L3.652 40H.743l6.037-9.42-5.896-9.24h2.884zm19.11 11.342h-4.985V30.67h4.986c.965 0 1.747-.154 2.345-.461.598-.308 1.034-.735 1.307-1.282.282-.547.423-1.17.423-1.871 0-.64-.14-1.243-.423-1.807-.273-.564-.709-1.017-1.307-1.358-.598-.35-1.38-.526-2.345-.526H18.47V40h-2.473V21.34h6.882c1.41 0 2.601.244 3.575.73.974.488 1.713 1.163 2.218 2.026.504.854.756 1.832.756 2.934 0 1.197-.252 2.217-.756 3.063-.505.846-1.244 1.491-2.218 1.936-.974.435-2.165.653-3.575.653zm21.419-2.602v1.18c0 1.4-.175 2.657-.526 3.768-.35 1.11-.854 2.054-1.512 2.832a6.56 6.56 0 01-2.371 1.781c-.914.41-1.94.615-3.076.615-1.102 0-2.114-.205-3.037-.615a6.832 6.832 0 01-2.384-1.781c-.666-.778-1.183-1.722-1.55-2.832-.368-1.111-.552-2.367-.552-3.768v-1.18c0-1.4.18-2.652.539-3.754.367-1.111.884-2.055 1.55-2.833A6.642 6.642 0 0133.75 21.7c.923-.41 1.935-.615 3.038-.615 1.136 0 2.161.205 3.075.615a6.496 6.496 0 012.371 1.794c.667.778 1.175 1.722 1.525 2.833.36 1.102.539 2.353.539 3.755zm-2.448 1.18v-1.205c0-1.11-.115-2.093-.346-2.948-.222-.854-.551-1.572-.987-2.153a4.255 4.255 0 00-1.602-1.32c-.624-.299-1.333-.448-2.127-.448-.77 0-1.466.15-2.09.448a4.422 4.422 0 00-1.589 1.32c-.435.581-.773 1.299-1.012 2.153-.24.855-.359 1.837-.359 2.948v1.205c0 1.119.12 2.11.359 2.973.24.854.581 1.576 1.025 2.166a4.536 4.536 0 001.602 1.32c.624.299 1.32.448 2.09.448.802 0 1.516-.15 2.14-.448a4.18 4.18 0 001.576-1.32c.436-.59.764-1.312.987-2.166.222-.863.333-1.854.333-2.973zm4.309-9.92h2.396l6.113 15.213 6.1-15.213h2.41L55.59 40h-1.871l-7.561-18.66zm-.782 0h2.114l.346 11.38V40h-2.46V21.34zm16.455 0h2.115V40h-2.46v-7.28l.345-11.38zm10.566 8.164h1.691c.83 0 1.513-.137 2.051-.41.547-.282.953-.662 1.218-1.14.273-.488.41-1.035.41-1.641 0-.718-.12-1.32-.36-1.807a2.401 2.401 0 00-1.076-1.102c-.478-.248-1.085-.372-1.82-.372-.666 0-1.256.132-1.768.397a2.909 2.909 0 00-1.192 1.102c-.282.479-.423 1.043-.423 1.692h-2.371c0-.948.24-1.811.718-2.589.478-.777 1.149-1.397 2.012-1.858.871-.462 1.88-.692 3.024-.692 1.128 0 2.115.2 2.96.602a4.408 4.408 0 011.974 1.769c.47.777.705 1.747.705 2.909 0 .47-.11.974-.333 1.512-.213.53-.551 1.025-1.012 1.487-.453.461-1.043.841-1.769 1.14-.726.29-1.598.436-2.614.436h-2.025v-1.435zm0 1.948v-1.423h2.025c1.187 0 2.17.141 2.947.423.778.282 1.389.658 1.833 1.128.453.47.769.987.948 1.55.188.556.282 1.111.282 1.667 0 .871-.15 1.645-.448 2.32a4.73 4.73 0 01-1.243 1.717c-.53.47-1.154.824-1.871 1.063-.718.24-1.5.36-2.346.36a7.453 7.453 0 01-2.294-.347 5.942 5.942 0 01-1.884-1 4.68 4.68 0 01-1.281-1.627c-.308-.65-.462-1.388-.462-2.217h2.371c0 .65.141 1.217.423 1.704.29.487.7.868 1.23 1.141.539.265 1.17.397 1.897.397.726 0 1.35-.124 1.871-.371a2.7 2.7 0 001.218-1.154c.29-.512.436-1.157.436-1.935 0-.777-.163-1.414-.488-1.91-.324-.504-.786-.875-1.384-1.115-.59-.247-1.285-.371-2.089-.371h-1.691zM92.84 34.95c0 1.136-.265 2.101-.795 2.896-.521.786-1.23 1.384-2.127 1.794-.889.41-1.893.615-3.012.615-1.12 0-2.128-.205-3.025-.615-.897-.41-1.606-1.008-2.127-1.794-.521-.795-.782-1.76-.782-2.896 0-.744.141-1.423.423-2.038a4.937 4.937 0 011.218-1.628 5.594 5.594 0 011.87-1.064c.727-.256 1.526-.384 2.397-.384 1.145 0 2.166.222 3.063.666.897.436 1.602 1.038 2.115 1.807.521.77.782 1.65.782 2.64zm-2.384-.052c0-.692-.15-1.303-.449-1.832a3.172 3.172 0 00-1.256-1.256c-.538-.3-1.162-.449-1.87-.449-.727 0-1.355.15-1.885.449a3.133 3.133 0 00-1.217 1.256c-.29.53-.436 1.14-.436 1.832 0 .718.141 1.333.423 1.846.29.504.7.893 1.23 1.166.538.265 1.175.397 1.91.397.735 0 1.367-.132 1.897-.397.53-.273.935-.662 1.217-1.166.29-.513.436-1.128.436-1.846zm1.948-8.702c0 .906-.24 1.722-.718 2.448s-1.132 1.299-1.96 1.718c-.83.418-1.77.628-2.82.628-1.068 0-2.02-.21-2.858-.628-.829-.42-1.478-.992-1.948-1.718a4.41 4.41 0 01-.705-2.448c0-1.085.235-2.008.705-2.768a4.673 4.673 0 011.96-1.743c.83-.401 1.774-.602 2.833-.602 1.068 0 2.016.2 2.845.602a4.589 4.589 0 011.948 1.743c.479.76.718 1.683.718 2.768zm-2.371.039c0-.624-.133-1.175-.397-1.654a2.913 2.913 0 00-1.103-1.127c-.47-.282-1.016-.423-1.64-.423-.624 0-1.17.132-1.64.397a2.76 2.76 0 00-1.09 1.102c-.256.479-.384 1.047-.384 1.705 0 .64.128 1.2.384 1.679.265.478.632.85 1.102 1.115.47.264 1.017.397 1.64.397.624 0 1.167-.133 1.628-.397a2.83 2.83 0 001.103-1.115c.264-.479.397-1.038.397-1.68z" fill="#fff"/><path d="M3.768 21.34l.463-.29-.16-.257h-.303v.547zm4.485 7.151l-.463.29.463.74.464-.74-.464-.29zm4.486-7.15v-.548h-.303l-.16.257.463.29zm2.883 0l.462.293.536-.84h-.998v.546zm-5.895 9.24l-.46-.295-.189.295.189.294.46-.295zM15.764 40v.547h1l-.54-.842-.46.295zm-2.91 0l-.462.292.16.255h.302V40zm-4.6-7.292l.462-.292-.463-.733-.462.733.462.292zM3.652 40v.547h.301l.161-.255L3.653 40zm-2.91 0l-.46-.295-.54.842h1V40zm6.037-9.42l.46.295.189-.294-.188-.295-.461.294zM.884 21.34v-.547h-.997l.536.841.461-.294zm2.42.29l4.486 7.152.927-.581L4.23 21.05l-.926.58zm5.413 7.152l4.485-7.151-.926-.581L7.79 28.2l.927.582zm4.022-6.895h2.883v-1.094H12.74v1.094zm2.422-.841l-5.895 9.24.922.588 5.896-9.24-.922-.588zm-5.894 9.83l6.036 9.419.92-.59-6.035-9.42-.921.59zm6.497 8.577h-2.91v1.094h2.91v-1.094zm-2.447.255l-4.601-7.292L7.79 33l4.6 7.292.926-.584zM7.79 32.416l-4.6 7.292.924.584L8.715 33l-.924-.584zm-4.138 7.037H.743v1.094h2.91v-1.094zm-2.45.842l6.037-9.42-.92-.59-6.037 9.42.92.59zM7.24 30.286l-5.896-9.24-.922.588 5.896 9.24.922-.588zm-6.357-8.4h2.884v-1.093H.884v1.094zm17.01 10.796h-.547v.547h.546v-.547zm0-2.012v-.547h-.547v.547h.546zm8.637-1.743l-.486-.25-.003.006.49.244zm0-3.678l-.492.239.003.006.49-.245zm-1.307-1.358l-.276.471.005.003.271-.474zm-6.754-.526v-.547h-.547v.547h.547zm0 16.635v.547h.547V40h-.547zm-2.473 0h-.547v.547h.547V40zm0-18.66v-.547h-.547v.547h.547zm12.675 2.756l-.473.275.002.002.47-.277zm-2.218 7.933l.224.499.003-.002-.227-.498zm-3.575.106h-4.986v1.094h4.986v-1.094zm-4.439.547V30.67h-1.093v2.012h1.093zm-.547-1.465h4.986v-1.094h-4.986v1.094zm4.986 0c1.017 0 1.893-.161 2.595-.522l-.5-.973c-.494.255-1.181.401-2.095.401v1.094zm2.595-.522c.69-.355 1.216-.862 1.546-1.523l-.978-.49c-.216.433-.562.78-1.068 1.04l.5.973zm1.543-1.517c.328-.635.484-1.346.484-2.122h-1.094c0 .626-.125 1.161-.362 1.62l.972.502zm.484-2.122c0-.724-.16-1.41-.48-2.052l-.979.49a3.44 3.44 0 01.365 1.562H27.5zm-.478-2.046c-.326-.673-.844-1.204-1.528-1.594l-.542.95c.512.292.866.667 1.086 1.122l.984-.478zM25.5 23.42c-.708-.415-1.595-.6-2.621-.6v1.093c.905 0 1.581.165 2.069.45l.552-.943zm-2.621-.6H18.47v1.093h4.409v-1.094zm-4.956.546V40h1.094V23.365h-1.094zm.547 16.088h-2.473v1.094h2.473v-1.094zM16.544 40V21.34H15.45V40h1.094zm-.547-18.113h6.882v-1.094h-6.882v1.094zm6.882 0c1.349 0 2.452.233 3.33.673l.49-.979c-1.069-.534-2.35-.788-3.82-.788v1.094zm3.33.673c.889.444 1.545 1.048 1.99 1.811l.945-.551c-.563-.963-1.385-1.708-2.445-2.239l-.49.979zm1.992 1.813c.449.761.68 1.642.68 2.657h1.094c0-1.188-.273-2.265-.832-3.212l-.942.555zm.68 2.657c0 1.12-.235 2.039-.68 2.783l.94.56c.565-.947.834-2.07.834-3.343H28.88zm-.68 2.783c-.441.742-1.091 1.316-1.974 1.718l.454.995c1.066-.486 1.894-1.203 2.46-2.153l-.94-.56zm-1.97 1.716c-.885.396-1.996.606-3.352.606v1.094c1.463 0 2.736-.226 3.799-.701l-.447-.999zm17.54 3.499l-.521-.165.521.165zm-3.883 4.613l-.222-.5-.002.001.224.5zm-6.113 0l-.224.5h.002l.222-.5zM31.39 37.86l-.415.356.002.002.413-.358zm-1.563-11.534l-.52-.172v.002l.52.17zm1.55-2.833l.416.356.001-.002-.417-.354zM33.75 21.7l-.222-.5-.002.001.224.499zm6.113 0l-.223.499h.001l.222-.499zm2.371 1.794l-.419.351.004.005.415-.356zm1.525 2.833l-.521.164.002.005.52-.17zm-2.255.781l-.53.138.002.005.528-.143zm-2.589-3.473l-.236.493.002.002.234-.495zm-4.216 0l-.237-.493-.002.001.239.492zm-1.59 1.32l-.434-.332-.003.004.438.328zm-1.012 9.279l-.527.146v.001l.527-.147zm1.025 2.166l-.437.329.006.007.431-.336zm1.602 1.32l-.239.492h.003l.236-.492zm5.806-1.32l-.44-.325.44.325zm.987-2.166l.529.138v-.002l-.53-.136zm2.234-4.152v1.179h1.093v-1.18H43.75zm0 1.179c0 1.356-.17 2.555-.5 3.603l1.043.329c.37-1.173.55-2.486.55-3.932H43.75zm-.5 3.603c-.332 1.051-.804 1.929-1.408 2.644l.834.706c.711-.84 1.248-1.851 1.617-3.021l-1.043-.329zm-1.408 2.644a6.014 6.014 0 01-2.176 1.635l.444.999a7.104 7.104 0 002.566-1.928l-.834-.706zm-2.178 1.635c-.835.375-1.782.567-2.852.567v1.094c1.203 0 2.306-.217 3.3-.663l-.448-.998zm-2.852.567c-1.032 0-1.968-.191-2.815-.568l-.444 1c.999.444 2.088.662 3.26.662V39.71zM34 39.142a6.28 6.28 0 01-2.195-1.64l-.826.716a7.377 7.377 0 002.573 1.922l.448-.998zm-2.193-1.638c-.614-.716-1.098-1.596-1.446-2.648l-1.039.343c.387 1.169.936 2.178 1.655 3.017l.83-.712zm-1.446-2.648c-.346-1.046-.524-2.242-.524-3.596h-1.093c0 1.448.19 2.763.578 3.94l1.039-.344zm-.524-3.596v-1.18h-1.093v1.18h1.093zm0-1.18c0-1.355.174-2.548.512-3.585l-1.04-.339c-.38 1.167-.566 2.477-.566 3.925h1.094zm.51-3.583c.349-1.052.834-1.932 1.448-2.648l-.83-.712c-.72.839-1.269 1.848-1.655 3.017l1.038.343zm1.45-2.65a6.096 6.096 0 012.177-1.65l-.448-.997a7.189 7.189 0 00-2.564 1.94l.834.707zm2.175-1.648c.847-.377 1.783-.568 2.816-.568v-1.094c-1.172 0-2.261.218-3.26.662l.444 1zm2.816-.568c1.07 0 2.017.192 2.852.567l.447-.998c-.993-.446-2.096-.663-3.3-.663v1.094zm2.853.568a5.95 5.95 0 012.174 1.645l.839-.702a7.044 7.044 0 00-2.569-1.943l-.444 1zm2.178 1.65c.613.714 1.088 1.59 1.419 2.641l1.043-.329c-.37-1.171-.91-2.183-1.632-3.024l-.83.712zm1.42 2.646c.338 1.037.512 2.23.512 3.585h1.093c0-1.447-.185-2.757-.565-3.924l-1.04.339zm-.842 4.765v-1.205h-1.094v1.205h1.094zm0-1.205c0-1.147-.12-2.18-.365-3.09l-1.056.285c.215.798.327 1.73.327 2.805h1.094zm-.364-3.085c-.236-.91-.592-1.695-1.078-2.344l-.875.656c.385.514.687 1.163.895 1.963l1.058-.275zm-1.078-2.344a4.803 4.803 0 00-1.806-1.486l-.468.988a3.71 3.71 0 011.399 1.154l.874-.656zm-1.804-1.485c-.707-.34-1.5-.502-2.363-.502v1.093c.724 0 1.351.137 1.89.395l.473-.986zm-2.363-.502c-.842 0-1.62.164-2.326.502l.473.986c.542-.26 1.156-.395 1.853-.395V22.64zm-2.328.503a4.97 4.97 0 00-1.785 1.48l.869.664c.396-.518.86-.9 1.394-1.16l-.478-.984zm-1.788 1.484c-.484.646-.848 1.428-1.101 2.334l1.053.295c.224-.803.536-1.456.923-1.973l-.875-.656zM31.57 26.96c-.256.912-.38 1.946-.38 3.095h1.094c0-1.073.116-2.004.339-2.8l-1.053-.295zm-.38 3.095v1.205h1.094v-1.205H31.19zm0 1.205c0 1.156.124 2.198.38 3.119l1.053-.292c-.223-.806-.339-1.746-.339-2.827H31.19zm.38 3.12c.253.907.622 1.694 1.115 2.348l.873-.658c-.396-.526-.711-1.183-.935-1.985l-1.053.295zm1.12 2.355a5.082 5.082 0 001.794 1.476l.478-.984a3.99 3.99 0 01-1.41-1.164l-.862.672zm1.797 1.477c.705.338 1.484.502 2.325.502v-1.093c-.696 0-1.31-.135-1.852-.395l-.473.986zm2.325.502c.872 0 1.668-.163 2.377-.502l-.473-.986c-.539.258-1.17.395-1.904.395v1.093zm2.377-.502a4.726 4.726 0 001.78-1.49l-.88-.647a3.634 3.634 0 01-1.373 1.15l.473.987zm1.78-1.488c.484-.656.84-1.445 1.076-2.353l-1.059-.276c-.208.8-.51 1.456-.897 1.979l.88.65zm1.076-2.355c.236-.917.35-1.955.35-3.11h-1.093c0 1.085-.108 2.029-.316 2.837l1.06.273zm4.113-13.029v-.547h-.812l.305.753.507-.206zm2.396 0l.508-.204-.138-.343h-.37v.547zm6.113 15.213l-.507.203.508 1.264.507-1.264-.508-.203zm6.1-15.213v-.547h-.37l-.137.344.508.203zm2.41 0l.507.206.306-.753h-.813v.547zM55.59 40v.547h.368l.139-.341L55.59 40zm-1.871 0l-.507.205.138.342h.369V40zm-8.343-18.66v-.547h-.547v.547h.547zm2.114 0l.547-.017-.016-.53h-.53v.547zm.346 11.38h.547v-.016l-.547.017zm0 7.28v.547h.547V40h-.547zm-2.46 0h-.547v.547h.547V40zM61.83 21.34v-.547h-.53l-.016.53.546.017zm2.115 0h.547v-.547h-.547v.547zm0 18.66v.547h.547V40h-.547zm-2.46 0h-.547v.547h.546V40zm0-7.28l-.547-.016v.017h.546zM46.157 21.888h2.396v-1.094h-2.396v1.094zm1.889-.343l6.113 15.212 1.015-.407-6.113-15.213-1.015.408zm7.128 15.212l6.1-15.212-1.015-.407-6.1 15.212 1.015.407zm5.593-14.87h2.409v-1.093h-2.41v1.094zm1.902-.752l-7.587 18.66 1.014.412 7.587-18.66-1.014-.412zm-7.08 18.32h-1.871v1.093h1.871v-1.094zm-1.364.34l-7.562-18.66-1.013.412 7.561 18.66 1.014-.411zm-8.85-17.907h2.114v-1.094h-2.114v1.094zm1.568-.53l.346 11.38 1.093-.033-.346-11.38-1.093.033zm.346 11.364V40h1.093v-7.28H47.29zm.546 6.732h-2.46v1.094h2.46v-1.094zM45.923 40V21.34h-1.094V40h1.094zM61.83 21.887h2.115v-1.094H61.83v1.094zm1.568-.547V40h1.094V21.34h-1.094zm.547 18.113h-2.46v1.094h2.46v-1.094zM62.032 40v-7.28H60.94V40h1.093zm0-7.263l.346-11.38-1.093-.034-.346 11.381 1.093.033zm10.365-3.233v-.547h-.547v.547h.547zm3.742-.41l.248.487.003-.001-.251-.486zm1.218-1.14l-.477-.269-.002.003.478.265zm-4.614-4.525l.248.488.003-.002-.251-.486zm-1.192 1.102l-.468-.284-.003.007.47.277zm-.423 1.692v.547h.547v-.547h-.547zm-2.371 0h-.547v.547h.547v-.547zm.718-2.589l-.466-.286.466.286zm2.012-1.858l-.256-.483h-.002l.258.483zm5.985-.09l-.235.494.004.002.23-.496zm1.973 1.769l-.469.28.002.003.467-.283zm.372 4.421l-.505-.208-.002.004.507.204zm-1.012 1.487l-.387-.387-.004.004.39.383zm-1.769 1.14l.203.508.005-.002-.208-.506zm-4.64.436h-.546v.547h.547v-.547zm0 .513h-.546v.547h.547v-.547zm0-1.423v-.546h-.546v.546h.547zm6.806 1.551l-.397.376.003.003.394-.379zm.948 1.55l-.52.166.002.01.518-.175zm-.166 3.986l-.5-.221-.003.005.503.216zm-1.243 1.718l-.36-.412-.003.003.363.409zm-6.51 1.076l-.17.52h.002l.167-.52zm-1.885-1l-.345.425.004.003.341-.427zm-1.281-1.627l-.495.234.002.003.493-.237zm-.462-2.217v-.547h-.547v.547h.547zm2.371 0h.547v-.547h-.547v.547zm.423 1.704l-.473.274.003.007.47-.28zm1.23 1.141l-.25.486.009.005.241-.491zm3.768.026l.235.494.003-.002-.238-.492zm1.218-1.154l-.476-.27-.003.007.479.263zm-.052-3.845l-.46.297.003.003.457-.3zm-1.384-1.115l-.212.505.01.003.202-.508zm-3.78-1.772h1.691v-1.094h-1.691v1.094zm1.691 0c.885 0 1.66-.146 2.299-.47l-.496-.975c-.438.223-1.03.351-1.803.351v1.094zm2.302-.471c.63-.325 1.121-.777 1.445-1.362l-.957-.53c-.206.373-.526.68-.99.92l.502.972zm1.443-1.36c.323-.575.48-1.215.48-1.907H77.22c0 .52-.117.974-.34 1.372l.953.536zm.48-1.907c0-.776-.129-1.466-.415-2.048l-.981.482c.192.392.303.906.303 1.566h1.093zm-.415-2.048a2.948 2.948 0 00-1.315-1.347l-.503.971c.374.194.649.475.837.858l.981-.482zm-1.315-1.347c-.58-.3-1.28-.433-2.072-.433v1.094c.678 0 1.191.114 1.569.31l.503-.971zm-2.072-.433c-.74 0-1.418.148-2.02.458l.503.972c.424-.22.925-.336 1.517-.336v-1.094zm-2.016.457a3.455 3.455 0 00-1.412 1.305l.935.568c.237-.39.558-.688.973-.899l-.496-.974zm-1.415 1.312c-.34.575-.499 1.239-.499 1.969h1.094c0-.568.122-1.033.347-1.414l-.942-.555zm.048 1.422h-2.371v1.094h2.371v-1.094zm-1.824.547c0-.851.213-1.614.636-2.302l-.931-.573a5.389 5.389 0 00-.799 2.875h1.094zm.636-2.302c.425-.69 1.02-1.244 1.805-1.663l-.516-.964c-.942.503-1.687 1.188-2.22 2.054l.931.573zm1.803-1.662c.78-.413 1.698-.628 2.768-.628v-1.094c-1.22 0-2.318.246-3.28.756l.512.966zm2.768-.628c1.063 0 1.967.189 2.726.55l.47-.989c-.933-.443-2.003-.655-3.196-.655v1.094zm2.73.551a3.862 3.862 0 011.735 1.553l.939-.56a4.955 4.955 0 00-2.213-1.985l-.46.992zm1.737 1.556c.405.671.626 1.536.626 2.626h1.093c0-1.234-.25-2.309-.784-3.192l-.935.566zm.626 2.626c0 .383-.091.816-.292 1.304l1.01.417c.244-.59.375-1.165.375-1.721h-1.094zm-.294 1.308a3.939 3.939 0 01-.892 1.304l.773.774a5.017 5.017 0 001.133-1.67l-1.014-.408zm-.896 1.308c-.39.398-.914.741-1.586 1.018l.416 1.011c.78-.321 1.436-.739 1.95-1.263l-.78-.766zm-1.581 1.016c-.645.258-1.444.396-2.411.396v1.094c1.066 0 2.01-.152 2.817-.475l-.406-1.015zm-2.411.396h-2.025v1.094h2.025v-1.094zm-1.478.547v-1.435H71.85v1.435h1.094zm0 .513v-1.423H71.85v1.423h1.094zm-.547-.876h2.025v-1.093h-2.025v1.093zm2.025 0c1.149 0 2.063.137 2.76.39l.374-1.028c-.858-.31-1.909-.455-3.134-.455v1.093zm2.76.39c.72.261 1.25.596 1.623.99l.794-.752c-.517-.546-1.207-.963-2.043-1.266l-.373 1.028zm1.626.993c.4.416.67.862.821 1.338l1.042-.332a4.498 4.498 0 00-1.075-1.764l-.788.758zm.824 1.347c.17.502.253.998.253 1.49h1.094c0-.617-.105-1.232-.31-1.84l-1.037.35zm.253 1.49c0 .81-.138 1.505-.401 2.099l1 .443c.335-.756.495-1.607.495-2.541h-1.094zm-.404 2.104a4.181 4.181 0 01-1.1 1.522l.72.824a5.276 5.276 0 001.385-1.913l-1.005-.433zm-1.103 1.525a4.77 4.77 0 01-1.681.954l.345 1.037a5.86 5.86 0 002.061-1.173l-.725-.818zm-1.681.954a6.83 6.83 0 01-2.173.33v1.094a7.92 7.92 0 002.518-.387l-.346-1.037zm-2.173.33c-.76 0-1.467-.107-2.127-.32l-.334 1.042a8 8 0 002.461.372V39.71zM72.4 39.39a5.393 5.393 0 01-1.712-.907l-.682.855c.602.48 1.289.843 2.056 1.092l.338-1.04zm-1.708-.904a4.134 4.134 0 01-1.133-1.44l-.986.474c.342.712.82 1.32 1.43 1.815l.689-.849zm-1.132-1.437c-.268-.566-.409-1.223-.409-1.983h-1.094c0 .897.167 1.718.514 2.451l.989-.468zm-.956-1.436h2.371v-1.094h-2.37v1.094zm1.824-.547c0 .73.16 1.396.497 1.978l.946-.548c-.226-.391-.349-.862-.349-1.43h-1.094zm.5 1.984c.346.58.834 1.03 1.45 1.347l.501-.972a2.452 2.452 0 01-1.011-.935l-.94.56zm1.459 1.352c.627.308 1.346.453 2.138.453v-1.093c-.66 0-1.206-.12-1.655-.342l-.483.982zm2.138.453c.787 0 1.495-.134 2.106-.424l-.47-.988c-.43.205-.97.319-1.636.319v1.093zm2.11-.426a3.243 3.243 0 001.458-1.382l-.958-.527a2.15 2.15 0 01-.977.924l.476.985zm1.454-1.376c.35-.617.507-1.362.507-2.205h-1.093c0 .712-.134 1.257-.365 1.666l.951.539zm.507-2.205c0-.851-.177-1.6-.576-2.21l-.915.6c.25.383.398.906.398 1.61h1.093zm-.574-2.206c-.39-.606-.945-1.048-1.64-1.326l-.407 1.015c.501.2.87.502 1.128.904l.92-.593zM76.39 31.32c-.671-.282-1.443-.414-2.3-.414V32c.748 0 1.369.115 1.877.329l.423-1.009zm-2.3-.414h-1.692V32h1.691v-1.094zm17.957 6.942l-.455-.303.455.303zm-2.127 1.794l-.228-.497h-.002l.23.497zm-8.164-1.794l-.457.3.001.002.456-.302zm-.359-4.934l-.496-.231-.001.003.497.228zm1.218-1.628l-.36-.412-.003.003.362.41zm1.87-1.064l.18.517h.003l-.182-.517zm5.46.282l-.243.49.004.002.24-.492zm2.115 1.807l-.455.304.002.003.453-.306zm-2.05.757l-.479.265.002.003.476-.268zm-1.257-1.256l.266-.478-.266.478zm-3.755 0l-.269-.477-.003.002.272.475zm-1.217 1.256l.48.263.001-.004-.481-.26zm-.013 3.678l-.48.263.006.01.474-.273zm1.23 1.166l-.25.486.009.005.241-.491zm3.807 0l.244.49.006-.004-.25-.486zm1.217-1.166l-.476-.27-.001.003.477.267zm-5.972-6.382l-.247.488h.002l.245-.488zm-1.95-6.936l-.463-.291-.002.004.465.287zm9.586 0l-.465.288.002.003.463-.29zm-3.153.026l-.28.469.005.003.275-.472zm-3.28-.026l.265.478.003-.002-.268-.476zm-1.09 1.102l-.478-.265-.004.007.482.258zm0 3.384l-.482.258.004.007.478-.265zm4.37 1.115l-.268-.477-.004.002.272.475zm3.76 5.92c0 1.05-.244 1.905-.703 2.594l.91.606c.6-.9.886-1.976.886-3.2h-1.093zm-.704 2.595a4.418 4.418 0 01-1.899 1.599l.455.995a5.532 5.532 0 002.356-1.99l-.912-.604zm-1.9 1.6c-.808.372-1.732.564-2.783.564v1.094c1.187 0 2.27-.218 3.24-.665l-.458-.993zm-2.783.564c-1.051 0-1.98-.192-2.797-.565l-.455.995c.977.446 2.065.664 3.252.664V39.71zm-2.797-.565c-.81-.37-1.437-.902-1.9-1.6l-.91.605c.58.875 1.37 1.539 2.355 1.99l.455-.995zm-1.898-1.597c-.452-.69-.692-1.545-.692-2.596h-1.094c0 1.221.281 2.296.872 3.196l.914-.6zm-.692-2.596c0-.673.127-1.273.373-1.81l-.994-.456a5.379 5.379 0 00-.473 2.266h1.094zm.372-1.807a4.389 4.389 0 011.084-1.45l-.725-.818a5.484 5.484 0 00-1.35 1.806l.99.462zm1.08-1.446a5.045 5.045 0 011.691-.96l-.357-1.033a6.14 6.14 0 00-2.052 1.168l.719.825zm1.695-.96c.66-.234 1.397-.354 2.214-.354V29.29c-.925 0-1.787.136-2.578.416l.364 1.031zm2.214-.354c1.073 0 2.009.208 2.82.61l.486-.98c-.983-.487-2.089-.724-3.306-.724v1.094zm2.824.611c.817.397 1.444.937 1.899 1.619l.91-.607c-.571-.856-1.353-1.52-2.33-1.995l-.479.983zm1.901 1.622c.456.672.688 1.444.688 2.334h1.093c0-1.093-.289-2.082-.876-2.947l-.905.613zm-.602 2.282c0-.773-.168-1.479-.52-2.101l-.952.537c.247.437.378.953.378 1.564h1.094zm-.518-2.098a3.718 3.718 0 00-1.468-1.468l-.531.956c.449.25.794.594 1.043 1.043l.956-.53zm-1.468-1.468c-.631-.35-1.349-.518-2.137-.518v1.094c.63 0 1.16.132 1.606.38l.53-.956zm-2.137-.518c-.802 0-1.526.166-2.153.52l.538.952c.433-.245.965-.378 1.615-.378v-1.094zm-2.156.521a3.68 3.68 0 00-1.426 1.47l.962.52c.243-.45.577-.794 1.008-1.041l-.544-.949zM83.3 32.804c-.34.621-.503 1.325-.503 2.095h1.094c0-.613.128-1.131.368-1.57l-.959-.525zm-.503 2.095c0 .79.156 1.5.49 2.11l.96-.528c-.23-.415-.356-.936-.356-1.582h-1.094zm.496 2.119a3.494 3.494 0 001.453 1.379l.502-.972a2.401 2.401 0 01-1.007-.953l-.948.546zm1.463 1.384c.628.309 1.35.453 2.15.453v-1.093c-.669 0-1.22-.121-1.667-.342l-.483.982zm2.15.453c.8 0 1.52-.144 2.142-.455l-.489-.978c-.438.219-.982.34-1.652.34v1.093zm2.148-.458a3.413 3.413 0 001.444-1.385l-.954-.534a2.32 2.32 0 01-.991.947l.501.972zm1.443-1.383c.346-.61.507-1.323.507-2.115H89.91c0 .644-.13 1.162-.365 1.576l.952.54zm1.361-10.817c0 .804-.21 1.514-.627 2.147l.913.602c.54-.82.808-1.74.808-2.749h-1.094zm-.627 2.147c-.423.641-1.002 1.152-1.751 1.53l.493.977c.908-.46 1.636-1.094 2.17-1.905l-.912-.602zm-1.751 1.53c-.743.376-1.597.57-2.573.57v1.093c1.125 0 2.151-.224 3.066-.686l-.493-.977zm-2.573.57c-.995 0-1.862-.195-2.614-.57l-.489.978c.924.461 1.962.685 3.103.685v-1.093zm-2.612-.57c-.748-.378-1.322-.887-1.735-1.526l-.918.594c.526.814 1.252 1.45 2.16 1.909l.493-.977zm-1.735-1.526a3.862 3.862 0 01-.617-2.15h-1.094c0 1.005.263 1.925.793 2.744l.918-.594zm-.617-2.15c0-1.006.217-1.824.623-2.481l-.93-.575c-.534.863-.787 1.89-.787 3.055h1.094zm.62-2.478a4.127 4.127 0 011.737-1.542l-.477-.984a5.22 5.22 0 00-2.185 1.944l.926.582zm1.737-1.542c.744-.36 1.605-.547 2.594-.547v-1.094c-1.13 0-2.157.214-3.07.657l.476.984zm2.594-.547c.999 0 1.863.187 2.607.547l.477-.984c-.914-.443-1.947-.657-3.084-.657v1.094zm2.607.547c.738.358 1.307.87 1.721 1.539l.93-.575a5.136 5.136 0 00-2.174-1.948l-.477.984zm1.723 1.542c.413.657.634 1.474.634 2.477h1.094c0-1.166-.258-2.195-.802-3.06l-.926.583zm-.643 2.516c0-.703-.15-1.348-.466-1.918l-.957.53c.214.386.33.844.33 1.388h1.093zm-.466-1.918a3.46 3.46 0 00-1.306-1.336l-.55.945c.385.224.682.528.9.92l.956-.53zm-1.3-1.332c-.565-.34-1.212-.501-1.921-.501v1.094c.539 0 .985.12 1.36.345l.562-.938zm-1.921-.501c-.703 0-1.345.15-1.909.468l.537.953c.376-.212.828-.327 1.372-.327v-1.094zm-1.906.466c-.554.308-.99.75-1.302 1.315l.957.53c.217-.392.508-.684.876-.889l-.531-.956zm-1.306 1.322c-.307.573-.449 1.234-.449 1.963h1.094c0-.587.114-1.063.32-1.447l-.965-.516zm-.449 1.963c0 .714.143 1.366.45 1.937l.963-.517c-.207-.385-.32-.853-.32-1.42h-1.093zm.453 1.944a3.37 3.37 0 001.312 1.326l.537-.953a2.277 2.277 0 01-.892-.903l-.957.53zm1.312 1.326c.564.318 1.206.468 1.909.468V28.88c-.545 0-.996-.115-1.372-.327l-.537.953zm1.909.468c.703 0 1.342-.15 1.9-.47l-.545-.949c-.365.21-.81.325-1.355.325v1.094zm1.896-.468a3.37 3.37 0 001.312-1.326l-.957-.53a2.273 2.273 0 01-.892.903l.537.953zm1.312-1.326c.317-.573.466-1.227.466-1.944h-1.094c0 .564-.116 1.03-.329 1.414l.957.53z" fill="#002B5E"/><defs><linearGradient id="paint0_linear_24_22" x1="10.39" y1="0" x2="80.263" y2="16.533" gradientUnits="userSpaceOnUse"><stop stop-color="#5690C5"/><stop offset="1" stop-color="#1F3663"/></linearGradient><linearGradient id="paint1_linear_24_22" x1="10.39" y1="46.479" x2="80.263" y2="63.012" gradientUnits="userSpaceOnUse"><stop stop-color="#5690C5"/><stop offset="1" stop-color="#1F3663"/></linearGradient></defs></svg>