<svg width="95" height="63" viewBox="0 0 95 63" fill="none" xmlns="http://www.w3.org/2000/svg">
<path d="M21.9827 15.7063H17.5185V4.60457L75.553 4.60457V15.7063H71.0888V10.0673L21.9827 10.0673V15.7063Z" fill="url(#paint0_linear_24_22)"/>
<path d="M17.5185 47.1184H21.9827V52.728H71.0888V47.1184H75.553V58.1614H17.5185V47.1184Z" fill="url(#paint1_linear_24_22)"/>
<path d="M3.76786 21.3401L8.25341 28.4914L12.739 21.3401H15.6225L9.72723 30.5804L15.7635 40H12.8543L8.25341 32.7078L3.65252 40H0.743319L6.77958 30.5804L0.884294 21.3401H3.76786ZM22.8789 32.6822H17.8935V30.6701H22.8789C23.8443 30.6701 24.6261 30.5163 25.2242 30.2087C25.8222 29.9011 26.258 29.4739 26.5314 28.9271C26.8133 28.3803 26.9543 27.7566 26.9543 27.056C26.9543 26.4152 26.8133 25.8129 26.5314 25.249C26.258 24.6851 25.8222 24.2322 25.2242 23.8905C24.6261 23.5402 23.8443 23.365 22.8789 23.365H18.4702V40H15.9967V21.3401H22.8789C24.2886 21.3401 25.4805 21.5836 26.4545 22.0706C27.4285 22.5576 28.1675 23.2326 28.6716 24.0955C29.1757 24.9499 29.4278 25.9282 29.4278 27.0304C29.4278 28.2265 29.1757 29.2475 28.6716 30.0933C28.1675 30.9392 27.4285 31.5843 26.4545 32.0285C25.4805 32.4643 24.2886 32.6822 22.8789 32.6822ZM44.2967 30.0805V31.2596C44.2967 32.6608 44.1216 33.9167 43.7713 35.0275C43.421 36.1382 42.9169 37.0823 42.259 37.8598C41.6011 38.6372 40.8108 39.231 39.888 39.6412C38.9739 40.0513 37.9486 40.2563 36.8122 40.2563C35.7101 40.2563 34.6976 40.0513 33.7749 39.6412C32.8607 39.231 32.0661 38.6372 31.3911 37.8598C30.7247 37.0823 30.2078 36.1382 29.8404 35.0275C29.473 33.9167 29.2893 32.6608 29.2893 31.2596V30.0805C29.2893 28.6793 29.4688 27.4277 29.8276 26.3255C30.195 25.2148 30.7119 24.2707 31.3783 23.4932C32.0447 22.7071 32.8351 22.1091 33.7493 21.699C34.672 21.2889 35.6845 21.0838 36.7866 21.0838C37.923 21.0838 38.9482 21.2889 39.8624 21.699C40.7852 22.1091 41.5755 22.7071 42.2333 23.4932C42.8998 24.2707 43.4081 25.2148 43.7584 26.3255C44.1173 27.4277 44.2967 28.6793 44.2967 30.0805ZM41.8489 31.2596V30.0549C41.8489 28.9442 41.7335 27.9616 41.5028 27.1073C41.2807 26.2529 40.9518 25.5352 40.516 24.9542C40.0803 24.3732 39.5463 23.9332 38.914 23.6342C38.2903 23.3351 37.5812 23.1856 36.7866 23.1856C36.0177 23.1856 35.3213 23.3351 34.6976 23.6342C34.0825 23.9332 33.5527 24.3732 33.1085 24.9542C32.6727 25.5352 32.3352 26.2529 32.096 27.1073C31.8568 27.9616 31.7372 28.9442 31.7372 30.0549V31.2596C31.7372 32.3788 31.8568 33.3699 32.096 34.2329C32.3352 35.0873 32.677 35.8092 33.1213 36.3987C33.5741 36.9797 34.1081 37.4197 34.7233 37.7188C35.347 38.0178 36.0433 38.1673 36.8122 38.1673C37.6154 38.1673 38.3288 38.0178 38.9525 37.7188C39.5762 37.4197 40.1016 36.9797 40.5288 36.3987C40.9646 35.8092 41.2935 35.0873 41.5157 34.2329C41.7378 33.3699 41.8489 32.3788 41.8489 31.2596ZM46.1576 21.3401H48.5541L54.6673 36.5525L60.7676 21.3401H63.177L55.59 40H53.7189L46.1576 21.3401ZM45.3758 21.3401H47.4904L47.8364 32.7206V40H45.3758V21.3401ZM61.8313 21.3401H63.946V40H61.4853V32.7206L61.8313 21.3401ZM72.3967 29.5038H74.0884C74.9172 29.5038 75.6007 29.3671 76.139 29.0937C76.6858 28.8118 77.0916 28.4316 77.3565 27.9531C77.6299 27.4661 77.7666 26.9193 77.7666 26.3127C77.7666 25.595 77.647 24.9926 77.4077 24.5056C77.1685 24.0186 76.8097 23.6512 76.3312 23.4035C75.8527 23.1557 75.2461 23.0318 74.5113 23.0318C73.8449 23.0318 73.2554 23.1642 72.7428 23.4291C72.2387 23.6854 71.8414 24.0528 71.5509 24.5313C71.2689 25.0097 71.128 25.5736 71.128 26.223H68.757C68.757 25.2746 68.9963 24.4117 69.4747 23.6342C69.9532 22.8567 70.6239 22.2372 71.4868 21.7759C72.3583 21.3145 73.3665 21.0838 74.5113 21.0838C75.6391 21.0838 76.626 21.2846 77.4718 21.6862C78.3177 22.0792 78.9755 22.6687 79.4454 23.4547C79.9154 24.2322 80.1503 25.202 80.1503 26.3639C80.1503 26.8339 80.0392 27.3379 79.8171 27.8762C79.6035 28.4059 79.266 28.9015 78.8047 29.3628C78.3518 29.8242 77.7623 30.2044 77.0361 30.5035C76.3098 30.7939 75.4384 30.9392 74.4216 30.9392H72.3967V29.5038ZM72.3967 31.4518V30.0293H74.4216C75.6092 30.0293 76.5918 30.1702 77.3693 30.4522C78.1468 30.7341 78.7577 31.1101 79.2019 31.58C79.6548 32.0499 79.9709 32.5668 80.1503 33.1307C80.3383 33.6861 80.4323 34.2414 80.4323 34.7968C80.4323 35.6682 80.2828 36.4415 79.9837 37.1164C79.6932 37.7914 79.2788 38.3638 78.7406 38.8338C78.2109 39.3037 77.5872 39.6582 76.8695 39.8975C76.1518 40.1367 75.37 40.2563 74.5242 40.2563C73.7125 40.2563 72.9478 40.141 72.2301 39.9103C71.521 39.6796 70.893 39.3464 70.3462 38.9107C69.7994 38.4664 69.3722 37.9238 69.0646 37.283C68.757 36.6337 68.6032 35.8947 68.6032 35.0659H70.9742C70.9742 35.7152 71.1151 36.2834 71.3971 36.7704C71.6876 37.2574 72.0977 37.6376 72.6274 37.911C73.1657 38.1759 73.7979 38.3083 74.5242 38.3083C75.2504 38.3083 75.8741 38.1844 76.3953 37.9366C76.925 37.6803 77.3308 37.2959 77.6128 36.7832C77.9033 36.2706 78.0485 35.6255 78.0485 34.848C78.0485 34.0705 77.8862 33.434 77.5615 32.9385C77.2369 32.4344 76.7755 32.0627 76.1774 31.8235C75.5879 31.5757 74.8916 31.4518 74.0884 31.4518H72.3967ZM92.8406 34.9506C92.8406 36.0869 92.5757 37.0524 92.046 37.8469C91.5248 38.633 90.8157 39.231 89.9186 39.6412C89.03 40.0513 88.0261 40.2563 86.9068 40.2563C85.7876 40.2563 84.7794 40.0513 83.8823 39.6412C82.9852 39.231 82.276 38.633 81.7549 37.8469C81.2337 37.0524 80.9731 36.0869 80.9731 34.9506C80.9731 34.2072 81.1141 33.528 81.396 32.9128C81.6865 32.2891 82.0923 31.7466 82.6135 31.2852C83.1432 30.8239 83.7669 30.4693 84.4846 30.2215C85.2109 29.9652 86.0097 29.837 86.8812 29.837C88.0261 29.837 89.0471 30.0592 89.9442 30.5035C90.8413 30.9392 91.5462 31.5415 92.0588 32.3105C92.58 33.0794 92.8406 33.9595 92.8406 34.9506ZM90.4568 34.8993C90.4568 34.2072 90.3073 33.5963 90.0083 33.0666C89.7092 32.5284 89.2906 32.1097 88.7523 31.8107C88.214 31.5116 87.5903 31.3621 86.8812 31.3621C86.155 31.3621 85.527 31.5116 84.9973 31.8107C84.4761 32.1097 84.0703 32.5284 83.7798 33.0666C83.4893 33.5963 83.344 34.2072 83.344 34.8993C83.344 35.617 83.485 36.2321 83.7669 36.7448C84.0574 37.2489 84.4675 37.6376 84.9973 37.911C85.5355 38.1759 86.1721 38.3083 86.9068 38.3083C87.6416 38.3083 88.2739 38.1759 88.8036 37.911C89.3333 37.6376 89.7391 37.2489 90.0211 36.7448C90.3116 36.2321 90.4568 35.617 90.4568 34.8993ZM92.4048 26.1973C92.4048 27.103 92.1656 27.9189 91.6871 28.6452C91.2087 29.3714 90.5551 29.9438 89.7263 30.3625C88.8976 30.7811 87.9577 30.9905 86.9068 30.9905C85.8388 30.9905 84.8862 30.7811 84.0489 30.3625C83.2201 29.9438 82.5708 29.3714 82.1009 28.6452C81.631 27.9189 81.396 27.103 81.396 26.1973C81.396 25.1123 81.631 24.1895 82.1009 23.4291C82.5793 22.6687 83.233 22.0877 84.0617 21.6862C84.8905 21.2846 85.8346 21.0838 86.894 21.0838C87.962 21.0838 88.9104 21.2846 89.7391 21.6862C90.5679 22.0877 91.2172 22.6687 91.6871 23.4291C92.1656 24.1895 92.4048 25.1123 92.4048 26.1973ZM90.0339 26.2358C90.0339 25.6121 89.9015 25.061 89.6366 24.5825C89.3717 24.1041 89.0044 23.7281 88.5344 23.4547C88.0645 23.1728 87.5177 23.0318 86.894 23.0318C86.2703 23.0318 85.7235 23.1642 85.2536 23.4291C84.7922 23.6854 84.4291 24.0528 84.1642 24.5313C83.9079 25.0097 83.7798 25.5779 83.7798 26.2358C83.7798 26.8766 83.9079 27.4362 84.1642 27.9147C84.4291 28.3931 84.7965 28.7648 85.2664 29.0296C85.7363 29.2945 86.2831 29.4269 86.9068 29.4269C87.5305 29.4269 88.0731 29.2945 88.5344 29.0296C89.0044 28.7648 89.3717 28.3931 89.6366 27.9147C89.9015 27.4362 90.0339 26.8766 90.0339 26.2358Z" fill="white"/>
<path d="M3.76786 21.3401L4.23109 21.0496L4.07035 20.7933H3.76786V21.3401ZM8.25341 28.4914L7.79018 28.7819L8.25341 29.5204L8.71663 28.7819L8.25341 28.4914ZM12.739 21.3401V20.7933H12.4365L12.2757 21.0496L12.739 21.3401ZM15.6225 21.3401L16.0835 21.6342L16.62 20.7933H15.6225V21.3401ZM9.72723 30.5804L9.26625 30.2862L9.0782 30.581L9.26684 30.8754L9.72723 30.5804ZM15.7635 40V40.5468H16.7633L16.2239 39.705L15.7635 40ZM12.8543 40L12.3918 40.2918L12.5527 40.5468H12.8543V40ZM8.25341 32.7078L8.71586 32.416L8.25341 31.683L7.79095 32.416L8.25341 32.7078ZM3.65252 40V40.5468H3.95407L4.11497 40.2918L3.65252 40ZM0.743319 40L0.282928 39.705L-0.256534 40.5468H0.743319V40ZM6.77958 30.5804L7.23998 30.8754L7.42862 30.581L7.24056 30.2862L6.77958 30.5804ZM0.884294 21.3401V20.7933H-0.113193L0.423314 21.6342L0.884294 21.3401ZM3.30463 21.6307L7.79018 28.7819L8.71663 28.2008L4.23109 21.0496L3.30463 21.6307ZM8.71663 28.7819L13.2022 21.6307L12.2757 21.0496L7.79018 28.2008L8.71663 28.7819ZM12.739 21.8869H15.6225V20.7933H12.739V21.8869ZM15.1615 21.046L9.26625 30.2862L10.1882 30.8745L16.0835 21.6342L15.1615 21.046ZM9.26684 30.8754L15.3031 40.295L16.2239 39.705L10.1876 30.2853L9.26684 30.8754ZM15.7635 39.4532H12.8543V40.5468H15.7635V39.4532ZM13.3168 39.7082L8.71586 32.416L7.79095 32.9996L12.3918 40.2918L13.3168 39.7082ZM7.79095 32.416L3.19006 39.7082L4.11497 40.2918L8.71586 32.9996L7.79095 32.416ZM3.65252 39.4532H0.743319V40.5468H3.65252V39.4532ZM1.20371 40.295L7.23998 30.8754L6.31919 30.2853L0.282928 39.705L1.20371 40.295ZM7.24056 30.2862L1.34527 21.046L0.423314 21.6342L6.3186 30.8745L7.24056 30.2862ZM0.884294 21.8869H3.76786V20.7933H0.884294V21.8869ZM17.8935 32.6821H17.3467V33.229H17.8935V32.6821ZM17.8935 30.6701V30.1233H17.3467V30.6701H17.8935ZM26.5314 28.9271L26.0453 28.6765L26.0423 28.6826L26.5314 28.9271ZM26.5314 25.249L26.0393 25.4875L26.0423 25.4935L26.5314 25.249ZM25.2242 23.8905L24.9478 24.3623L24.9529 24.3652L25.2242 23.8905ZM18.4702 23.365V22.8182H17.9234V23.365H18.4702ZM18.4702 40V40.5468H19.017V40H18.4702ZM15.9967 40H15.4499V40.5468H15.9967V40ZM15.9967 21.3401V20.7933H15.4499V21.3401H15.9967ZM28.6716 24.0955L28.1995 24.3713L28.2007 24.3734L28.6716 24.0955ZM26.4545 32.0285L26.6778 32.5277L26.6814 32.526L26.4545 32.0285ZM22.8789 32.1353H17.8935V33.229H22.8789V32.1353ZM18.4403 32.6821V30.6701H17.3467V32.6821H18.4403ZM17.8935 31.2169H22.8789V30.1233H17.8935V31.2169ZM22.8789 31.2169C23.896 31.2169 24.7725 31.0558 25.4742 30.695L24.9741 29.7224C24.4796 29.9767 23.7927 30.1233 22.8789 30.1233V31.2169ZM25.4742 30.695C26.1648 30.3398 26.6899 29.8328 27.0205 29.1716L26.0423 28.6826C25.8261 29.115 25.4797 29.4624 24.9741 29.7224L25.4742 30.695ZM27.0174 29.1777C27.3445 28.5432 27.5011 27.8316 27.5011 27.056H26.4075C26.4075 27.6816 26.2821 28.2173 26.0454 28.6765L27.0174 29.1777ZM27.5011 27.056C27.5011 26.3318 27.341 25.6455 27.0205 25.0044L26.0423 25.4935C26.2856 25.9802 26.4075 26.4986 26.4075 27.056H27.5011ZM27.0234 25.0104C26.6972 24.3375 26.1793 23.8065 25.4954 23.4157L24.9529 24.3652C25.4651 24.658 25.8188 25.0326 26.0393 25.4875L27.0234 25.0104ZM25.5005 23.4186C24.792 23.0037 23.9051 22.8182 22.8789 22.8182V23.9118C23.7836 23.9118 24.4602 24.0767 24.9478 24.3623L25.5005 23.4186ZM22.8789 22.8182H18.4702V23.9118H22.8789V22.8182ZM17.9234 23.365V40H19.017V23.365H17.9234ZM18.4702 39.4532H15.9967V40.5468H18.4702V39.4532ZM16.5436 40V21.3401H15.4499V40H16.5436ZM15.9967 21.8869H22.8789V20.7933H15.9967V21.8869ZM22.8789 21.8869C24.2279 21.8869 25.3309 22.1202 26.2099 22.5597L26.699 21.5815C25.6301 21.0471 24.3493 20.7933 22.8789 20.7933V21.8869ZM26.2099 22.5597C27.0978 23.0037 27.7537 23.6083 28.1995 24.3713L29.1438 23.8197C28.5813 22.8569 27.7591 22.1116 26.699 21.5815L26.2099 22.5597ZM28.2007 24.3734C28.6497 25.1345 28.8809 26.0148 28.8809 27.0304H29.9746C29.9746 25.8416 29.7017 24.7653 29.1426 23.8177L28.2007 24.3734ZM28.8809 27.0304C28.8809 28.1491 28.6457 29.0687 28.2019 29.8134L29.1413 30.3733C29.7057 29.4263 29.9746 28.3039 29.9746 27.0304H28.8809ZM28.2019 29.8134C27.7597 30.5554 27.1096 31.1287 26.2275 31.531L26.6814 32.526C27.7473 32.0398 28.5753 31.323 29.1413 30.3733L28.2019 29.8134ZM26.2312 31.5294C25.3461 31.9253 24.2352 32.1353 22.8789 32.1353V33.229C24.342 33.229 25.6148 33.0032 26.6778 32.5277L26.2312 31.5294ZM43.7713 35.0275L43.2498 34.863L43.7713 35.0275ZM39.8881 39.6412L39.666 39.1415L39.6642 39.1422L39.8881 39.6412ZM33.7749 39.6412L33.5511 40.1401L33.5528 40.1408L33.7749 39.6412ZM31.3911 37.8598L30.976 38.2156L30.9782 38.2182L31.3911 37.8598ZM29.8276 26.3255L29.3085 26.1538L29.3077 26.1562L29.8276 26.3255ZM31.3783 23.4932L31.7935 23.8491L31.7954 23.8468L31.3783 23.4932ZM33.7493 21.699L33.5272 21.1993L33.5254 21.2001L33.7493 21.699ZM39.8624 21.699L39.6386 22.1979L39.6403 22.1986L39.8624 21.699ZM42.2333 23.4932L41.814 23.8442L41.8182 23.849L42.2333 23.4932ZM43.7584 26.3255L43.2369 26.49L43.2385 26.4948L43.7584 26.3255ZM41.5028 27.1073L40.9736 27.2449L40.9749 27.2498L41.5028 27.1073ZM38.914 23.6342L38.6776 24.1272L38.6802 24.1285L38.914 23.6342ZM34.6976 23.6342L34.4612 23.1411L34.4586 23.1424L34.6976 23.6342ZM33.1085 24.9542L32.6741 24.622L32.671 24.6261L33.1085 24.9542ZM32.096 34.2329L31.5691 34.379L31.5695 34.3803L32.096 34.2329ZM33.1213 36.3987L32.6845 36.7279L32.69 36.7349L33.1213 36.3987ZM34.7233 37.7188L34.4842 38.2106L34.4869 38.2118L34.7233 37.7188ZM40.5288 36.3987L40.0891 36.0737L40.0883 36.0748L40.5288 36.3987ZM41.5157 34.2329L42.0449 34.3705L42.0452 34.3692L41.5157 34.2329ZM43.7499 30.0805V31.2596H44.8435V30.0805H43.7499ZM43.7499 31.2596C43.7499 32.6159 43.5803 33.815 43.2498 34.863L44.2927 35.1919C44.6628 34.0185 44.8435 32.7056 44.8435 31.2596H43.7499ZM43.2498 34.863C42.9182 35.9144 42.4463 36.7918 41.8416 37.5065L42.6764 38.213C43.3874 37.3727 43.9237 36.362 44.2927 35.1919L43.2498 34.863ZM41.8416 37.5065C41.2364 38.2217 40.5127 38.7651 39.666 39.1415L40.1101 40.1408C41.1089 39.697 41.9658 39.0528 42.6764 38.213L41.8416 37.5065ZM39.6642 39.1422C38.8293 39.5168 37.8818 39.7095 36.8122 39.7095V40.8031C38.0154 40.8031 39.1184 40.5857 40.1119 40.1401L39.6642 39.1422ZM36.8122 39.7095C35.7795 39.7095 34.8436 39.5178 33.997 39.1415L33.5528 40.1408C34.5516 40.5848 35.6406 40.8031 36.8122 40.8031V39.7095ZM33.9987 39.1422C33.159 38.7656 32.4284 38.2205 31.8041 37.5013L30.9782 38.2182C31.7038 39.054 32.5624 39.6965 33.5511 40.1401L33.9987 39.1422ZM31.8063 37.5039C31.1923 36.7876 30.7078 35.9084 30.3596 34.8557L29.3213 35.1992C29.7079 36.3679 30.2571 37.3769 30.976 38.2156L31.8063 37.5039ZM30.3596 34.8557C30.0137 33.8101 29.8362 32.6136 29.8362 31.2596H28.7425C28.7425 32.708 28.9324 34.0234 29.3213 35.1992L30.3596 34.8557ZM29.8362 31.2596V30.0805H28.7425V31.2596H29.8362ZM29.8362 30.0805C29.8362 28.7252 30.0098 27.5322 30.3476 26.4948L29.3077 26.1562C28.9278 27.3231 28.7425 28.6334 28.7425 30.0805H29.8362ZM30.3468 26.4972C30.695 25.4445 31.1795 24.5654 31.7935 23.849L30.9632 23.1373C30.2443 23.976 29.695 24.9851 29.3085 26.1538L30.3468 26.4972ZM31.7954 23.8468C32.4106 23.1212 33.1355 22.5736 33.9731 22.1979L33.5254 21.2001C32.5346 21.6445 31.6789 22.2931 30.9612 23.1396L31.7954 23.8468ZM33.9713 22.1986C34.818 21.8224 35.7539 21.6306 36.7866 21.6306V20.537C35.615 20.537 34.526 20.7554 33.5272 21.1993L33.9713 22.1986ZM36.7866 21.6306C37.8561 21.6306 38.8037 21.8233 39.6386 22.1979L40.0862 21.2001C39.0928 20.7544 37.9898 20.537 36.7866 20.537V21.6306ZM39.6403 22.1986C40.4857 22.5743 41.2089 23.1211 41.814 23.8441L42.6527 23.1422C41.9421 22.2932 41.0847 21.6438 40.0845 21.1993L39.6403 22.1986ZM41.8182 23.849C42.4305 24.5634 42.9058 25.4399 43.2369 26.49L44.2799 26.161C43.9105 24.9896 43.3691 23.978 42.6485 23.1373L41.8182 23.849ZM43.2385 26.4948C43.5763 27.5322 43.7499 28.7252 43.7499 30.0805H44.8435C44.8435 28.6334 44.6583 27.3231 44.2784 26.1562L43.2385 26.4948ZM42.3957 31.2596V30.0549H41.3021V31.2596H42.3957ZM42.3957 30.0549C42.3957 28.9077 42.2767 27.8756 42.0308 26.9647L40.9749 27.2498C41.1904 28.0477 41.3021 28.9807 41.3021 30.0549H42.3957ZM42.0321 26.9697C41.7958 26.0609 41.44 25.2749 40.9535 24.6261L40.0786 25.2823C40.4635 25.7955 40.7656 26.4449 40.9736 27.2449L42.0321 26.9697ZM40.9535 24.6261C40.4665 23.9768 39.8636 23.4784 39.1478 23.1399L38.6802 24.1285C39.229 24.388 39.6941 24.7696 40.0786 25.2823L40.9535 24.6261ZM39.1504 23.1411C38.4427 22.8018 37.6509 22.6388 36.7866 22.6388V23.7324C37.5115 23.7324 38.138 23.8685 38.6776 24.1272L39.1504 23.1411ZM36.7866 22.6388C35.9451 22.6388 35.1666 22.8029 34.4612 23.1411L34.934 24.1272C35.4761 23.8674 36.0903 23.7324 36.7866 23.7324V22.6388ZM34.4586 23.1424C33.7615 23.4812 33.1665 23.9782 32.6741 24.622L33.5428 25.2864C33.939 24.7683 34.4034 24.3852 34.9367 24.1259L34.4586 23.1424ZM32.671 24.6261C32.1867 25.2718 31.823 26.0542 31.5695 26.9598L32.6226 27.2547C32.8475 26.4515 33.1587 25.7985 33.5459 25.2823L32.671 24.6261ZM31.5695 26.9598C31.3139 27.8725 31.1904 28.9063 31.1904 30.0549H32.284C32.284 28.9821 32.3997 28.0508 32.6226 27.2547L31.5695 26.9598ZM31.1904 30.0549V31.2596H32.284V30.0549H31.1904ZM31.1904 31.2596C31.1904 32.4165 31.3139 33.4583 31.5691 34.3789L32.6229 34.0868C32.3997 33.2815 32.284 32.3412 32.284 31.2596H31.1904ZM31.5695 34.3803C31.8234 35.2874 32.1919 36.0741 32.6846 36.7278L33.558 36.0696C33.1621 35.5443 32.847 34.8871 32.6226 34.0854L31.5695 34.3803ZM32.69 36.7349C33.1901 37.3766 33.7882 37.8722 34.4842 38.2106L34.9623 37.227C34.428 36.9672 33.9581 36.5829 33.5526 36.0626L32.69 36.7349ZM34.4869 38.2118C35.1922 38.55 35.9707 38.7141 36.8122 38.7141V37.6205C36.1159 37.6205 35.5017 37.4856 34.9597 37.2257L34.4869 38.2118ZM36.8122 38.7141C37.6841 38.7141 38.4804 38.5515 39.1889 38.2118L38.7161 37.2257C38.1772 37.4841 37.5467 37.6205 36.8122 37.6205V38.7141ZM39.1889 38.2118C39.897 37.8724 40.4914 37.3727 40.9694 36.7227L40.0883 36.0748C39.7119 36.5867 39.2554 36.9671 38.7161 37.2257L39.1889 38.2118ZM40.9686 36.7238C41.4534 36.0678 41.8087 35.279 42.0449 34.3705L40.9864 34.0953C40.7784 34.8955 40.4758 35.5506 40.0891 36.0737L40.9686 36.7238ZM42.0452 34.3692C42.2813 33.4521 42.3957 32.4137 42.3957 31.2596H41.3021C41.3021 32.344 41.1943 33.2878 40.9861 34.0965L42.0452 34.3692ZM46.1576 21.3401V20.7933H45.346L45.6508 21.5455L46.1576 21.3401ZM48.5541 21.3401L49.0615 21.1362L48.9237 20.7933H48.5541V21.3401ZM54.6673 36.5525L54.1599 36.7564L54.6678 38.0203L55.1748 36.7561L54.6673 36.5525ZM60.7676 21.3401V20.7933H60.3978L60.2601 21.1366L60.7676 21.3401ZM63.177 21.3401L63.6835 21.5461L63.9896 20.7933H63.177V21.3401ZM55.59 40V40.5468H55.958L56.0966 40.206L55.59 40ZM53.7189 40L53.2121 40.2054L53.3505 40.5468H53.7189V40ZM45.3758 21.3401V20.7933H44.829V21.3401H45.3758ZM47.4904 21.3401L48.037 21.3235L48.0208 20.7933H47.4904V21.3401ZM47.8364 32.7206H48.3832V32.7123L48.383 32.704L47.8364 32.7206ZM47.8364 40V40.5468H48.3832V40H47.8364ZM45.3758 40H44.829V40.5468H45.3758V40ZM61.8313 21.3401V20.7933H61.3009L61.2848 21.3235L61.8313 21.3401ZM63.946 21.3401H64.4928V20.7933H63.946V21.3401ZM63.946 40V40.5468H64.4928V40H63.946ZM61.4853 40H60.9385V40.5468H61.4853V40ZM61.4853 32.7206L60.9388 32.704L60.9385 32.7123V32.7206H61.4853ZM46.1576 21.8869H48.5541V20.7933H46.1576V21.8869ZM48.0467 21.544L54.1599 36.7564L55.1747 36.3486L49.0615 21.1362L48.0467 21.544ZM55.1748 36.7561L61.2752 21.5436L60.2601 21.1366L54.1598 36.349L55.1748 36.7561ZM60.7676 21.8869H63.177V20.7933H60.7676V21.8869ZM62.6705 21.1342L55.0835 39.794L56.0966 40.206L63.6835 21.5461L62.6705 21.1342ZM55.59 39.4532H53.7189V40.5468H55.59V39.4532ZM54.2257 39.7946L46.6643 21.1348L45.6508 21.5455L53.2121 40.2054L54.2257 39.7946ZM45.3758 21.8869H47.4904V20.7933H45.3758V21.8869ZM46.9439 21.3567L47.2899 32.7372L48.383 32.704L48.037 21.3235L46.9439 21.3567ZM47.2896 32.7206V40H48.3832V32.7206H47.2896ZM47.8364 39.4532H45.3758V40.5468H47.8364V39.4532ZM45.9226 40V21.3401H44.829V40H45.9226ZM61.8313 21.8869H63.946V20.7933H61.8313V21.8869ZM63.3992 21.3401V40H64.4928V21.3401H63.3992ZM63.946 39.4532H61.4853V40.5468H63.946V39.4532ZM62.0321 40V32.7206H60.9385V40H62.0321ZM62.0319 32.7372L62.3779 21.3567L61.2848 21.3235L60.9388 32.704L62.0319 32.7372ZM72.3967 29.5038V28.957H71.8499V29.5038H72.3967ZM76.139 29.0937L76.3866 29.5812L76.3896 29.5797L76.139 29.0937ZM77.3565 27.9531L76.8796 27.6854L76.8781 27.6883L77.3565 27.9531ZM72.7428 23.4291L72.9906 23.9165L72.9938 23.9149L72.7428 23.4291ZM71.5509 24.5313L71.0834 24.2475L71.0798 24.2537L71.5509 24.5313ZM71.128 26.223V26.7698H71.6748V26.223H71.128ZM68.757 26.223H68.2102V26.7698H68.757V26.223ZM69.4747 23.6342L69.009 23.3476L69.4747 23.6342ZM71.4868 21.7759L71.231 21.2926L71.229 21.2936L71.4868 21.7759ZM77.4718 21.6862L77.2373 22.1801L77.2414 22.182L77.4718 21.6862ZM79.4454 23.4547L78.9761 23.7353L78.9775 23.7376L79.4454 23.4547ZM79.8171 27.8762L79.3116 27.6676L79.31 27.6717L79.8171 27.8762ZM78.8047 29.3628L78.418 28.9762L78.4144 28.9798L78.8047 29.3628ZM77.0361 30.5035L77.2392 31.0112L77.2443 31.0091L77.0361 30.5035ZM72.3967 30.9392H71.8499V31.486H72.3967V30.9392ZM72.3967 31.4518H71.8499V31.9986H72.3967V31.4518ZM72.3967 30.0293V29.4825H71.8499V30.0293H72.3967ZM79.202 31.58L78.8046 31.9557L78.8082 31.9594L79.202 31.58ZM80.1503 33.1307L79.6292 33.2965L79.6324 33.306L80.1503 33.1307ZM79.9837 37.1164L79.4837 36.8949L79.4814 36.9003L79.9837 37.1164ZM78.7406 38.8338L78.381 38.4218L78.3777 38.4247L78.7406 38.8338ZM72.2301 39.9103L72.061 40.4303L72.0628 40.4309L72.2301 39.9103ZM70.3462 38.9107L70.0014 39.3351L70.0054 39.3383L70.3462 38.9107ZM69.0646 37.283L68.5704 37.5171L68.5716 37.5197L69.0646 37.283ZM68.6032 35.0659V34.5191H68.0564V35.0659H68.6032ZM70.9742 35.0659H71.521V34.5191H70.9742V35.0659ZM71.3971 36.7704L70.9238 37.0444L70.9275 37.0505L71.3971 36.7704ZM72.6274 37.911L72.3766 38.397L72.386 38.4016L72.6274 37.911ZM76.3953 37.9366L76.6301 38.4305L76.6334 38.4289L76.3953 37.9366ZM77.6128 36.7832L77.137 36.5136L77.1337 36.5197L77.6128 36.7832ZM77.5615 32.9385L77.1018 33.2346L77.1041 33.2381L77.5615 32.9385ZM76.1774 31.8235L75.9655 32.3277L75.9743 32.3312L76.1774 31.8235ZM72.3967 30.0506H74.0884V28.957H72.3967V30.0506ZM74.0884 30.0506C74.9729 30.0506 75.7485 29.9054 76.3866 29.5812L75.8913 28.6062C75.4529 28.8289 74.8615 28.957 74.0884 28.957V30.0506ZM76.3896 29.5797C77.0201 29.2546 77.5112 28.8026 77.8349 28.2179L76.8781 27.6883C76.672 28.0606 76.3515 28.3689 75.8884 28.6077L76.3896 29.5797ZM77.8333 28.2208C78.1565 27.6451 78.3134 27.0047 78.3134 26.3127H77.2198C77.2198 26.8338 77.1033 27.2871 76.8797 27.6854L77.8333 28.2208ZM78.3134 26.3127C78.3134 25.5372 78.1845 24.8467 77.8985 24.2645L76.9169 24.7467C77.1094 25.1385 77.2198 25.6527 77.2198 26.3127H78.3134ZM77.8985 24.2645C77.6081 23.6733 77.1658 23.2199 76.5826 22.9179L76.0797 23.889C76.4535 24.0826 76.7289 24.3639 76.9169 24.7467L77.8985 24.2645ZM76.5826 22.9179C76.0034 22.618 75.3034 22.485 74.5113 22.485V23.5786C75.1889 23.5786 75.702 23.6934 76.0797 23.889L76.5826 22.9179ZM74.5113 22.485C73.7712 22.485 73.0932 22.6326 72.4918 22.9433L72.9938 23.9149C73.4176 23.6959 73.9187 23.5786 74.5113 23.5786V22.485ZM72.4949 22.9417C71.9011 23.2436 71.4274 23.6811 71.0835 24.2475L72.0183 24.8151C72.2554 24.4245 72.5762 24.1272 72.9906 23.9165L72.4949 22.9417ZM71.0798 24.2537C70.7404 24.8295 70.5812 25.4927 70.5812 26.223H71.6748C71.6748 25.6546 71.7974 25.1899 72.022 24.8089L71.0798 24.2537ZM71.128 25.6762H68.757V26.7698H71.128V25.6762ZM69.3038 26.223C69.3038 25.3717 69.5171 24.6086 69.9404 23.9207L69.009 23.3476C68.4754 24.2147 68.2102 25.1775 68.2102 26.223H69.3038ZM69.9404 23.9207C70.3645 23.2316 70.9607 22.6772 71.7446 22.2581L71.229 21.2936C70.287 21.7973 69.5419 22.4817 69.009 23.3476L69.9404 23.9207ZM71.7427 22.2591C72.5235 21.8457 73.4412 21.6306 74.5113 21.6306V20.537C73.2917 20.537 72.1931 20.7832 71.231 21.2926L71.7427 22.2591ZM74.5113 21.6306C75.5744 21.6306 76.4782 21.8197 77.2373 22.1801L77.7063 21.1922C76.7737 20.7494 75.7039 20.537 74.5113 20.537V21.6306ZM77.2414 22.182C77.9898 22.5298 78.5636 23.0452 78.9761 23.7353L79.9148 23.1742C79.3875 22.2922 78.6455 21.6286 77.7022 21.1903L77.2414 22.182ZM78.9775 23.7376C79.3833 24.409 79.6035 25.2743 79.6035 26.3639H80.6971C80.6971 25.1297 80.4474 24.0555 79.9134 23.1719L78.9775 23.7376ZM79.6035 26.3639C79.6035 26.7474 79.5128 27.1802 79.3117 27.6676L80.3226 28.0848C80.5657 27.4957 80.6971 26.9203 80.6971 26.3639H79.6035ZM79.31 27.6717C79.1275 28.1242 78.8347 28.5595 78.418 28.9762L79.1913 29.7495C79.6973 29.2435 80.0795 28.6877 80.3242 28.0807L79.31 27.6717ZM78.4144 28.9798C78.0232 29.3784 77.5001 29.721 76.8279 29.9978L77.2443 31.0091C78.0245 30.6878 78.6805 30.27 79.1949 29.7459L78.4144 28.9798ZM76.833 29.9958C76.1875 30.2539 75.3886 30.3924 74.4216 30.3924V31.486C75.4881 31.486 76.4322 31.334 77.2392 31.0112L76.833 29.9958ZM74.4216 30.3924H72.3967V31.486H74.4216V30.3924ZM72.9435 30.9392V29.5038H71.8499V30.9392H72.9435ZM72.9435 31.4518V30.0293H71.8499V31.4518H72.9435ZM72.3967 30.5761H74.4216V29.4825H72.3967V30.5761ZM74.4216 30.5761C75.571 30.5761 76.4851 30.7132 77.1829 30.9662L77.5557 29.9381C76.6985 29.6273 75.6475 29.4825 74.4216 29.4825V30.5761ZM77.1829 30.9662C77.9019 31.227 78.4329 31.5625 78.8046 31.9557L79.5993 31.2043C79.0824 30.6576 78.3916 30.2413 77.5557 29.9381L77.1829 30.9662ZM78.8082 31.9594C79.2088 32.3751 79.4778 32.8206 79.6292 33.2965L80.6714 32.9649C80.464 32.313 80.1007 31.7247 79.5957 31.2006L78.8082 31.9594ZM79.6324 33.306C79.8023 33.8081 79.8855 34.3043 79.8855 34.7968H80.9791C80.9791 34.1785 80.8743 33.5641 80.6683 32.9554L79.6324 33.306ZM79.8855 34.7968C79.8855 35.6055 79.7468 36.3012 79.4838 36.8949L80.4837 37.3379C80.8187 36.5818 80.9791 35.7309 80.9791 34.7968H79.8855ZM79.4814 36.9003C79.2223 37.5023 78.8559 38.0072 78.381 38.4218L79.1002 39.2457C79.7018 38.7204 80.1641 38.0805 80.486 37.3326L79.4814 36.9003ZM78.3777 38.4247C77.9069 38.8423 77.349 39.1612 76.6965 39.3787L77.0424 40.4162C77.8253 40.1553 78.5148 39.765 79.1034 39.2428L78.3777 38.4247ZM76.6965 39.3787C76.0408 39.5973 75.3181 39.7095 74.5242 39.7095V40.8031C75.4219 40.8031 76.2628 40.6761 77.0424 40.4162L76.6965 39.3787ZM74.5242 39.7095C73.7649 39.7095 73.0571 39.6017 72.3975 39.3897L72.0628 40.4309C72.8386 40.6802 73.66 40.8031 74.5242 40.8031V39.7095ZM72.3993 39.3903C71.7482 39.1785 71.1792 38.8753 70.687 38.483L70.0054 39.3383C70.6068 39.8175 71.2937 40.1807 72.061 40.4303L72.3993 39.3903ZM70.691 38.4863C70.2074 38.0933 69.8306 37.6151 69.5576 37.0464L68.5716 37.5197C68.9138 38.2325 69.3914 38.8394 70.0014 39.335L70.691 38.4863ZM69.5588 37.049C69.2908 36.4832 69.15 35.8261 69.15 35.0659H68.0564C68.0564 35.9632 68.2233 36.7842 68.5704 37.5171L69.5588 37.049ZM68.6032 35.6127H70.9742V34.5191H68.6032V35.6127ZM70.4274 35.0659C70.4274 35.7964 70.5867 36.462 70.9239 37.0444L71.8703 36.4964C71.6436 36.1048 71.521 35.634 71.521 35.0659H70.4274ZM70.9275 37.0505C71.273 37.6298 71.7611 38.0792 72.3766 38.3969L72.8782 37.4251C72.4343 37.196 72.1022 36.885 71.8667 36.4903L70.9275 37.0505ZM72.386 38.4016C73.0135 38.7104 73.7316 38.8551 74.5242 38.8551V37.7615C73.8643 37.7615 73.3178 37.6413 72.8688 37.4204L72.386 38.4016ZM74.5242 38.8551C75.3112 38.8551 76.0191 38.7209 76.6301 38.4305L76.1605 37.4428C75.7291 37.6479 75.1896 37.7615 74.5242 37.7615V38.8551ZM76.6334 38.4289C77.2646 38.1235 77.755 37.6594 78.0919 37.0467L77.1337 36.5197C76.9067 36.9323 76.5854 37.2372 76.1571 37.4444L76.6334 38.4289ZM78.0885 37.0528C78.4382 36.4358 78.5953 35.6908 78.5953 34.848H77.5017C77.5017 35.5603 77.3684 36.1054 77.137 36.5136L78.0885 37.0528ZM78.5953 34.848C78.5953 33.9968 78.4176 33.2473 78.0189 32.6388L77.1041 33.2381C77.3548 33.6207 77.5017 34.1443 77.5017 34.848H78.5953ZM78.0212 32.6424C77.6304 32.0356 77.0757 31.5939 76.3805 31.3158L75.9743 32.3312C76.4752 32.5315 76.8433 32.8332 77.1018 33.2346L78.0212 32.6424ZM76.3893 31.3194C75.7179 31.0372 74.9463 30.905 74.0884 30.905V31.9986C74.8368 31.9986 75.4579 32.1142 75.9655 32.3276L76.3893 31.3194ZM74.0884 30.905H72.3967V31.9986H74.0884V30.905ZM92.046 37.8469L91.591 37.5436L91.5903 37.5448L92.046 37.8469ZM89.9186 39.6412L89.6912 39.1438L89.6894 39.1447L89.9186 39.6412ZM81.7549 37.8469L81.2976 38.1468L81.2991 38.1491L81.7549 37.8469ZM81.396 32.9128L80.9003 32.682L80.8989 32.685L81.396 32.9128ZM82.6135 31.2852L82.2544 30.8729L82.2511 30.8758L82.6135 31.2852ZM84.4846 30.2215L84.6631 30.7384L84.6666 30.7371L84.4846 30.2215ZM89.9442 30.5035L89.7015 30.9935L89.7053 30.9953L89.9442 30.5035ZM92.0588 32.3105L91.6038 32.6138L91.6062 32.6173L92.0588 32.3105ZM90.0083 33.0666L89.5303 33.3322L89.5321 33.3354L90.0083 33.0666ZM88.7523 31.8107L89.0179 31.3327L88.7523 31.8107ZM84.9973 31.8107L84.7285 31.3345L84.7251 31.3364L84.9973 31.8107ZM83.7798 33.0666L84.2592 33.3296L84.261 33.3263L83.7798 33.0666ZM83.7669 36.7448L83.2877 37.0083L83.2932 37.0178L83.7669 36.7448ZM84.9973 37.911L84.7464 38.397L84.7559 38.4016L84.9973 37.911ZM88.8036 37.911L89.0481 38.4001L89.0544 38.3969L88.8036 37.911ZM90.0211 36.7448L89.5453 36.4752L89.5439 36.4778L90.0211 36.7448ZM84.0489 30.3625L83.8023 30.8506L83.8044 30.8516L84.0489 30.3625ZM82.1009 23.4291L81.6381 23.1379L81.6357 23.1417L82.1009 23.4291ZM91.6871 23.4291L91.222 23.7166L91.2243 23.7203L91.6871 23.4291ZM88.5344 23.4547L88.2531 23.9237L88.2595 23.9274L88.5344 23.4547ZM85.2536 23.4291L85.5191 23.9071L85.5221 23.9055L85.2536 23.4291ZM84.1642 24.5313L83.6858 24.2664L83.6822 24.2731L84.1642 24.5313ZM84.1642 27.9147L83.6822 28.1729L83.6858 28.1795L84.1642 27.9147ZM88.5344 29.0296L88.2659 28.5533L88.2622 28.5554L88.5344 29.0296ZM92.2938 34.9506C92.2938 35.9998 92.0502 36.8548 91.591 37.5436L92.501 38.1503C93.1012 37.2499 93.3874 36.174 93.3874 34.9506H92.2938ZM91.5903 37.5448C91.1282 38.2417 90.4999 38.7741 89.6912 39.1438L90.1459 40.1385C91.1314 39.688 91.9215 39.0242 92.5017 38.1491L91.5903 37.5448ZM89.6894 39.1447C88.8823 39.5172 87.9583 39.7095 86.9068 39.7095V40.8031C88.0938 40.8031 89.1777 40.5854 90.1477 40.1376L89.6894 39.1447ZM86.9068 39.7095C85.8555 39.7095 84.9264 39.5172 84.1096 39.1438L83.655 40.1385C84.6324 40.5853 85.7197 40.8031 86.9068 40.8031V39.7095ZM84.1096 39.1438C83.3009 38.7741 82.6727 38.2417 82.2106 37.5448L81.2991 38.1491C81.8794 39.0242 82.6695 39.688 83.655 40.1385L84.1096 39.1438ZM82.2121 37.547C81.76 36.8577 81.5199 36.0015 81.5199 34.9506H80.4263C80.4263 36.1723 80.7074 37.247 81.2976 38.1468L82.2121 37.547ZM81.5199 34.9506C81.5199 34.2781 81.647 33.6776 81.8931 33.1407L80.8989 32.685C80.5811 33.3784 80.4263 34.1364 80.4263 34.9506H81.5199ZM81.8917 33.1437C82.1501 32.5888 82.5103 32.1069 82.976 31.6947L82.2511 30.8758C81.6744 31.3863 81.2229 31.9894 80.9003 32.682L81.8917 33.1437ZM82.9727 31.6976C83.4453 31.2859 84.0064 30.9651 84.6631 30.7384L84.3062 29.7046C83.5275 29.9735 82.8412 30.3618 82.2544 30.8729L82.9727 31.6976ZM84.6666 30.7371C85.3272 30.504 86.0637 30.3838 86.8812 30.3838V29.2902C85.9558 29.2902 85.0945 29.4264 84.3027 29.7059L84.6666 30.7371ZM86.8812 30.3838C87.954 30.3838 88.89 30.5916 89.7015 30.9935L90.1869 30.0134C89.2041 29.5268 88.0981 29.2902 86.8812 29.2902V30.3838ZM89.7053 30.9953C90.522 31.392 91.1494 31.9322 91.6038 32.6138L92.5138 32.0072C91.9429 31.1509 91.1605 30.4864 90.1831 30.0116L89.7053 30.9953ZM91.6062 32.6173C92.0618 33.2895 92.2938 34.0611 92.2938 34.9506H93.3874C93.3874 33.8578 93.0982 32.8694 92.5114 32.0037L91.6062 32.6173ZM91.0036 34.8993C91.0036 34.1262 90.8359 33.4203 90.4844 32.7978L89.5321 33.3354C89.7788 33.7724 89.91 34.2883 89.91 34.8993H91.0036ZM90.4863 32.8011C90.1376 32.1735 89.6454 31.6813 89.0179 31.3327L88.4868 32.2887C88.9358 32.5381 89.2808 32.8832 89.5303 33.3322L90.4863 32.8011ZM89.0179 31.3327C88.3868 30.9821 87.669 30.8153 86.8812 30.8153V31.9089C87.5117 31.9089 88.0413 32.0412 88.4868 32.2887L89.0179 31.3327ZM86.8812 30.8153C86.079 30.8153 85.3548 30.9809 84.7285 31.3345L85.2661 32.2868C85.6992 32.0423 86.2309 31.9089 86.8812 31.9089V30.8153ZM84.7251 31.3364C84.114 31.687 83.6365 32.1808 83.2986 32.8069L84.261 33.3263C84.504 32.876 84.8382 32.5324 85.2694 32.285L84.7251 31.3364ZM83.3003 32.8037C82.9596 33.4251 82.7972 34.1288 82.7972 34.8993H83.8908C83.8908 34.2856 84.019 33.7676 84.2592 33.3295L83.3003 32.8037ZM82.7972 34.8993C82.7972 35.6884 82.9525 36.3986 83.2878 37.0083L84.2461 36.4813C84.0175 36.0657 83.8908 35.5455 83.8908 34.8993H82.7972ZM83.2932 37.0178C83.6374 37.6151 84.126 38.0767 84.7465 38.3969L85.2481 37.4251C84.8091 37.1986 84.4775 36.8826 84.2407 36.4718L83.2932 37.0178ZM84.7559 38.4016C85.3842 38.7108 86.1068 38.8551 86.9068 38.8551V37.7615C86.2373 37.7615 85.6869 37.6409 85.2387 37.4204L84.7559 38.4016ZM86.9068 38.8551C87.7065 38.8551 88.4264 38.711 89.0481 38.4001L88.559 37.4219C88.1213 37.6408 87.5767 37.7615 86.9068 37.7615V38.8551ZM89.0544 38.3969C89.6762 38.076 90.1622 37.6125 90.4983 37.0117L89.5439 36.4778C89.316 36.8852 88.9904 37.1992 88.5528 37.4251L89.0544 38.3969ZM90.4968 37.0144C90.8431 36.4034 91.0036 35.691 91.0036 34.8993H89.91C89.91 35.543 89.7801 36.0609 89.5453 36.4752L90.4968 37.0144ZM91.858 26.1973C91.858 27.0007 91.6476 27.7112 91.2305 28.3443L92.1438 28.946C92.6836 28.1266 92.9516 27.2053 92.9516 26.1973H91.858ZM91.2305 28.3443C90.8081 28.9855 90.2293 29.4958 89.4798 29.8744L89.9729 30.8506C90.8808 30.3919 91.6093 29.7573 92.1438 28.946L91.2305 28.3443ZM89.4798 29.8744C88.737 30.2496 87.8835 30.4436 86.9068 30.4436V31.5373C88.032 31.5373 89.0581 31.3126 89.9729 30.8506L89.4798 29.8744ZM86.9068 30.4436C85.9117 30.4436 85.0447 30.2491 84.2934 29.8734L83.8044 30.8516C84.7276 31.3132 85.766 31.5373 86.9068 31.5373V30.4436ZM84.2954 29.8744C83.5466 29.4961 82.9734 28.987 82.56 28.3481L81.6418 28.9422C82.1682 29.7558 82.8936 30.3915 83.8023 30.8506L84.2954 29.8744ZM82.56 28.3481C82.1501 27.7146 81.9428 27.0028 81.9428 26.1973H80.8492C80.8492 27.2032 81.1119 28.1232 81.6418 28.9422L82.56 28.3481ZM81.9428 26.1973C81.9428 25.192 82.1599 24.3738 82.566 23.7166L81.6357 23.1417C81.102 24.0053 80.8492 25.0325 80.8492 26.1973H81.9428ZM82.5637 23.7203C82.9862 23.0488 83.5611 22.5363 84.3001 22.1782L83.8233 21.1941C82.9048 21.6391 82.1725 22.2886 81.6381 23.1379L82.5637 23.7203ZM84.3001 22.1782C85.0442 21.8177 85.9047 21.6306 86.894 21.6306V20.537C85.7644 20.537 84.7368 20.7514 83.8233 21.1941L84.3001 22.1782ZM86.894 21.6306C87.8926 21.6306 88.7573 21.818 89.5007 22.1782L89.9776 21.1941C89.0635 20.7512 88.0314 20.537 86.894 20.537V21.6306ZM89.5007 22.1782C90.239 22.536 90.8084 23.0473 91.222 23.7166L92.1523 23.1417C91.6261 22.2901 90.8968 21.6395 89.9776 21.1941L89.5007 22.1782ZM91.2243 23.7203C91.6375 24.3769 91.858 25.1937 91.858 26.1973H92.9516C92.9516 25.0308 92.6937 24.0021 92.15 23.1379L91.2243 23.7203ZM90.5807 26.2358C90.5807 25.5326 90.4307 24.888 90.115 24.3177L89.1582 24.8474C89.3722 25.234 89.4871 25.6915 89.4871 26.2358H90.5807ZM90.115 24.3177C89.8026 23.7534 89.3652 23.3055 88.8094 22.9821L88.2595 23.9274C88.6435 24.1508 88.9409 24.4547 89.1582 24.8474L90.115 24.3177ZM88.8158 22.9859C88.2496 22.6462 87.6029 22.485 86.894 22.485V23.5786C87.4326 23.5786 87.8794 23.6994 88.2531 23.9236L88.8158 22.9859ZM86.894 22.485C86.1911 22.485 85.549 22.6349 84.9851 22.9528L85.5221 23.9055C85.898 23.6936 86.3495 23.5786 86.894 23.5786V22.485ZM84.988 22.9511C84.4338 23.259 83.9984 23.7018 83.6858 24.2664L84.6426 24.7961C84.8598 24.4038 85.1506 24.1118 85.5191 23.9071L84.988 22.9511ZM83.6822 24.2731C83.3752 24.8461 83.233 25.5067 83.233 26.2358H84.3266C84.3266 25.649 84.4406 25.1734 84.6462 24.7895L83.6822 24.2731ZM83.233 26.2358C83.233 26.9504 83.3763 27.6018 83.6822 28.1729L84.6462 27.6564C84.4395 27.2706 84.3266 26.8027 84.3266 26.2358H83.233ZM83.6858 28.1795C83.999 28.7452 84.4385 29.1907 84.9979 29.506L85.5349 28.5533C85.1545 28.3389 84.8592 28.041 84.6426 27.6498L83.6858 28.1795ZM84.9979 29.506C85.5618 29.8238 86.2039 29.9737 86.9068 29.9737V28.8801C86.3623 28.8801 85.9108 28.7652 85.5349 28.5533L84.9979 29.506ZM86.9068 29.9737C87.6095 29.9737 88.2492 29.8239 88.8067 29.5039L88.2622 28.5554C87.897 28.7651 87.4516 28.8801 86.9068 28.8801V29.9737ZM88.8029 29.506C89.3623 29.1907 89.8018 28.7452 90.115 28.1795L89.1582 27.6498C88.9417 28.041 88.6464 28.3389 88.266 28.5533L88.8029 29.506ZM90.115 28.1795C90.4319 27.607 90.5807 26.9532 90.5807 26.2358H89.4871C89.4871 26.7999 89.371 27.2653 89.1582 27.6498L90.115 28.1795Z" fill="#002B5E"/>
<defs>
<linearGradient id="paint0_linear_24_22" x1="10.3896" y1="9.53674e-07" x2="80.2635" y2="16.5332" gradientUnits="userSpaceOnUse">
<stop stop-color="#5690C5"/>
<stop offset="1" stop-color="#1F3663"/>
</linearGradient>
<linearGradient id="paint1_linear_24_22" x1="10.3896" y1="46.4788" x2="80.2635" y2="63.0119" gradientUnits="userSpaceOnUse">
<stop stop-color="#5690C5"/>
<stop offset="1" stop-color="#1F3663"/>
</linearGradient>
</defs>
</svg>
